<svg width="43" height="26" viewBox="0 0 43 26" fill="none" xmlns="http://www.w3.org/2000/svg">
<rect width="43" height="25.0498" rx="4" fill="white"/>
<path fill-rule="evenodd" clip-rule="evenodd" d="M24.5165 12.5251C24.5165 17.0849 20.6843 20.781 15.9572 20.781C11.2303 20.781 7.39832 17.0849 7.39832 12.5251C7.39832 7.96595 11.2303 4.26953 15.9572 4.26953C20.6843 4.26953 24.5165 7.96595 24.5165 12.5251Z" fill="#333399"/>
<path fill-rule="evenodd" clip-rule="evenodd" d="M27.4481 4.26953C25.2367 4.26953 23.2215 5.07882 21.7024 6.40646C21.3932 6.67679 21.1043 6.9693 20.8384 7.28021H22.5673C22.804 7.55745 23.0216 7.84892 23.2199 8.15447H20.1858C20.0041 8.43524 19.839 8.72683 19.6928 9.02874H23.7129C23.8501 9.31185 23.9714 9.60332 24.0753 9.90248H19.33C19.2311 10.1877 19.1482 10.4791 19.0815 10.7769H24.3236C24.4497 11.3405 24.5165 11.9253 24.5165 12.5251C24.5165 13.4419 24.3613 14.3239 24.0753 15.1478H19.33C19.4342 15.4471 19.5554 15.739 19.6925 16.0221H23.7129C23.5663 16.3237 23.4016 16.6156 23.2195 16.8963H20.1858C20.3839 17.2014 20.602 17.4934 20.8384 17.7701H22.567C22.3015 18.0815 22.0123 18.374 21.7027 18.6443C23.2217 19.972 25.2367 20.781 27.4481 20.781C32.1751 20.781 36.0071 17.0849 36.0071 12.5251C36.0071 7.96595 32.1751 4.26953 27.4481 4.26953Z" fill="#0066CC"/>
<path fill-rule="evenodd" clip-rule="evenodd" d="M34.8662 17.1269C34.8662 16.9797 34.9901 16.8606 35.1425 16.8606C35.2953 16.8606 35.4188 16.9797 35.4188 17.1269C35.4188 17.2742 35.2953 17.3937 35.1425 17.3937C34.9901 17.3937 34.8662 17.2742 34.8662 17.1269ZM35.1425 17.3298C35.2588 17.3298 35.3527 17.2391 35.3527 17.1269C35.3527 17.0151 35.2588 16.9247 35.1425 16.9247C35.0267 16.9247 34.9327 17.0151 34.9327 17.1269C34.9327 17.2391 35.0267 17.3298 35.1425 17.3298ZM35.1052 17.2439H35.0487V17.01H35.1512C35.1726 17.01 35.1942 17.01 35.2132 17.0217C35.2328 17.0346 35.2439 17.0571 35.2439 17.08C35.2439 17.1068 35.2281 17.1316 35.2021 17.141L35.2465 17.2439H35.1836L35.1468 17.1514H35.1052V17.2439ZM35.1053 17.1113H35.1366C35.1482 17.1113 35.1608 17.1121 35.1711 17.1068C35.1804 17.1009 35.1853 17.0902 35.1853 17.0798C35.1853 17.0709 35.1796 17.0607 35.1716 17.0559C35.1616 17.0503 35.1459 17.0517 35.1355 17.0517H35.1053V17.1113Z" fill="#0066CC"/>
<path fill-rule="evenodd" clip-rule="evenodd" d="M15.4637 10.6351C15.3873 10.9589 15.3473 11.1423 15.2437 11.5366C14.6001 11.2733 13.7372 11.1359 13.0751 11.5348C12.4503 11.9183 12.2392 12.5168 12.2848 13.1797C12.3308 13.4987 12.579 13.8102 12.9285 13.9454C13.5344 14.1612 14.1127 14.0823 14.7563 13.765C14.6648 14.1641 14.5958 14.4775 14.5159 14.7628C13.7438 14.9708 13.011 15.0391 12.2392 14.7916C11.5498 14.5603 10.989 13.9615 10.9434 13.3152C10.7871 12.2775 11.3019 11.2158 12.3493 10.7285C13.3233 10.3058 14.4344 10.3792 15.4637 10.6351Z" fill="#000066"/>
<path fill-rule="evenodd" clip-rule="evenodd" d="M26.3702 14.3232C26.1666 14.5197 25.8209 14.9501 24.8812 14.9501C24.0255 14.9501 23.4248 14.3413 23.729 12.9744C23.729 12.9742 24.0828 11.3652 24.0828 11.3652H25.3887C25.3887 11.3652 25.0341 12.976 25.0348 12.9744C24.9141 13.5219 24.9427 13.9385 25.5191 13.9385C26.1985 13.9385 26.4018 13.5422 26.5302 12.9744C26.5292 12.9752 26.8848 11.3652 26.8848 11.3652H28.2473L27.6611 13.952C27.5944 14.2555 27.5307 14.5768 27.4939 14.8937H26.2677C26.2677 14.8937 26.345 14.4628 26.3702 14.3232Z" fill="#000066"/>
<path fill-rule="evenodd" clip-rule="evenodd" d="M28.6807 12.4812C28.6807 12.9287 28.9853 13.2345 29.6775 13.463C30.2119 13.6431 30.2958 13.696 30.2958 13.8527C30.2958 14.0759 30.0572 14.1706 29.5421 14.1706C29.15 14.1706 28.7859 14.1329 28.3644 14.0348C28.3644 14.0348 28.1986 14.7667 28.1817 14.8502C28.5481 14.9132 29.1826 14.9502 29.5512 14.9502C30.9341 14.9502 31.5753 14.5773 31.5753 13.7728C31.5753 13.2915 31.3064 13.0081 30.6504 12.791C30.0974 12.6157 30.0361 12.5753 30.0361 12.4079C30.0361 12.2205 30.2545 12.1211 30.6795 12.1211C30.9353 12.1211 31.2934 12.142 31.6263 12.1756L31.81 11.3569C31.4702 11.3179 30.9526 11.2866 30.6539 11.2866C29.1863 11.2866 28.6761 11.8316 28.6807 12.4812Z" fill="#000066"/>
<path fill-rule="evenodd" clip-rule="evenodd" d="M15.9618 11.3652H17.3283L16.5498 14.8937H15.183L15.9618 11.3652Z" fill="#000066"/>
<path fill-rule="evenodd" clip-rule="evenodd" d="M23.7677 11.3502C22.8041 11.2274 22.5291 11.6841 22.2704 11.9111C22.3012 11.7274 22.3582 11.5482 22.3468 11.3652H21.0916C20.919 12.4579 20.6125 13.5636 20.3727 14.6562L20.3098 14.8934H21.7308C21.8932 14.1769 22.0816 13.0952 22.2989 12.7677C22.516 12.4408 22.8773 12.1794 23.3516 12.3367L23.7677 11.3502Z" fill="#000066"/>
<path fill-rule="evenodd" clip-rule="evenodd" d="M20.7882 11.3502C19.8248 11.2274 19.5499 11.6841 19.291 11.9111C19.322 11.7274 19.3787 11.5482 19.3675 11.3652H18.1124C17.9398 12.4579 17.6332 13.5636 17.3935 14.6562L17.3306 14.8934H18.7515C18.9139 14.1769 19.1024 13.0952 19.3196 12.7677C19.5368 12.4408 19.8979 12.1794 20.3723 12.3367L20.7882 11.3502Z" fill="#000066"/>
<path fill-rule="evenodd" clip-rule="evenodd" d="M31.9942 14.3686C31.9942 14.2213 32.118 14.1018 32.2707 14.1018C32.4233 14.1018 32.5472 14.2213 32.5472 14.3686C32.5472 14.5159 32.4233 14.6352 32.2707 14.6352C32.118 14.6352 31.9942 14.5159 31.9942 14.3686ZM32.2707 14.5712C32.3866 14.5712 32.4809 14.4804 32.4809 14.3686C32.4809 14.2567 32.3866 14.166 32.2707 14.166C32.1548 14.166 32.0604 14.2567 32.0604 14.3686C32.0604 14.4804 32.1548 14.5712 32.2707 14.5712ZM32.2334 14.4855H32.1767V14.251H32.2792C32.3004 14.251 32.3225 14.2516 32.3412 14.2633C32.3612 14.2761 32.3721 14.2988 32.3721 14.3216C32.3721 14.3482 32.3562 14.3729 32.3301 14.3823L32.3747 14.4855H32.3121L32.275 14.3927H32.2334V14.4855ZM32.2333 14.3526H32.2647C32.2763 14.3526 32.2892 14.3536 32.2992 14.3483C32.3085 14.3426 32.3133 14.3317 32.3133 14.3215C32.3133 14.3125 32.3075 14.3021 32.2999 14.2972C32.29 14.2919 32.2739 14.2932 32.2632 14.2932H32.2333V14.3526Z" fill="white"/>
<path fill-rule="evenodd" clip-rule="evenodd" d="M15.7312 10.3769C15.6548 10.7011 15.6146 10.8846 15.5113 11.2785C14.8676 11.0156 14.0046 10.8782 13.3425 11.2768C12.7179 11.6602 12.5069 12.2588 12.5522 12.9216C12.5985 13.2408 12.8464 13.5523 13.196 13.6876C13.8019 13.9032 14.3801 13.8242 15.0239 13.5069C14.9324 13.9062 14.8632 14.2196 14.7833 14.5051C14.0115 14.7128 13.2784 14.7813 12.5069 14.5338C11.8172 14.3025 11.2567 13.7036 11.211 13.0571C11.0546 12.0195 11.5693 10.9576 12.6168 10.4705C13.5907 10.0478 14.7017 10.1211 15.7312 10.3769Z" fill="white"/>
<path fill-rule="evenodd" clip-rule="evenodd" d="M26.6377 14.0654C26.434 14.2619 26.0882 14.6919 25.1487 14.6919C24.2929 14.6919 23.7491 14.0834 24.0532 12.7164L24.4074 11.1074H25.7135C25.7135 11.1074 25.3586 12.7178 25.359 12.7164C25.2385 13.2639 25.2671 13.6805 25.8437 13.6805C26.5226 13.6805 26.7263 13.2843 26.8544 12.7164C26.8536 12.7174 27.2092 11.1074 27.2092 11.1074H28.5148L27.9284 13.6941C27.8618 13.9973 27.7984 14.3186 27.7614 14.6359H26.5353C26.5353 14.6359 26.6127 14.2047 26.6377 14.0654Z" fill="white"/>
<path fill-rule="evenodd" clip-rule="evenodd" d="M28.9481 12.2234C28.9481 12.6709 29.2527 12.9767 29.9451 13.205C30.4796 13.3852 30.5633 13.4382 30.5633 13.5946C30.5633 13.8181 30.3245 13.9129 29.8097 13.9129C29.4176 13.9129 29.0534 13.875 28.6318 13.7771C28.6318 13.7771 28.466 14.5086 28.449 14.5925C28.8157 14.6554 29.45 14.6921 29.8187 14.6921C31.2015 14.6921 31.8429 14.3196 31.8429 13.5149C31.8429 13.0335 31.5741 12.7505 30.9178 12.5334C30.3646 12.358 30.3034 12.3172 30.3034 12.1501C30.3034 11.9627 30.5221 11.8634 30.9472 11.8634C31.2027 11.8634 31.561 11.8843 31.894 11.9177L32.0773 11.0989C31.7376 11.0599 31.22 11.0286 30.9215 11.0286C29.4538 11.0286 28.9433 11.5737 28.9481 12.2234Z" fill="white"/>
<path fill-rule="evenodd" clip-rule="evenodd" d="M16.2859 11.1074H17.596L16.8172 14.6359H15.5074L16.2859 11.1074Z" fill="white"/>
<path fill-rule="evenodd" clip-rule="evenodd" d="M24.0351 11.0924C23.0716 10.9695 22.7968 11.4262 22.5378 11.6532C22.5688 11.4695 22.6256 11.2901 22.6142 11.1074H21.4159C21.2435 12.1998 20.9367 13.3054 20.6972 14.3984L20.6343 14.6354H21.9982C22.1608 13.9189 22.3491 12.8372 22.5665 12.51C22.7835 12.1827 23.1448 11.9215 23.6189 12.0788L24.0351 11.0924Z" fill="white"/>
<path fill-rule="evenodd" clip-rule="evenodd" d="M21.0559 11.0924C20.0923 10.9695 19.8175 11.4262 19.5585 11.6532C19.5894 11.4695 19.6464 11.2901 19.6349 11.1074H18.4366C18.2642 12.1998 17.9577 13.3054 17.7177 14.3984L17.655 14.6354H19.0188C19.1815 13.9189 19.3696 12.8372 19.5873 12.51C19.8042 12.1827 20.1655 11.9215 20.6397 12.0788L21.0559 11.0924Z" fill="white"/>
</svg>
