<svg width="43" height="26" viewBox="0 0 43 26" fill="none" xmlns="http://www.w3.org/2000/svg">
<rect width="43" height="25.0498" rx="4" fill="white"/>
<path fill-rule="evenodd" clip-rule="evenodd" d="M35.9723 12.5181C35.9723 17.1337 32.1342 20.8749 27.3984 20.8749C22.6637 20.8749 18.825 17.1337 18.825 12.5181C18.825 7.90243 22.6637 4.16113 27.3984 4.16113C32.1342 4.16113 35.9723 7.90243 35.9723 12.5181Z" fill="#CC0000"/>
<path fill-rule="evenodd" clip-rule="evenodd" d="M20.7754 17.8251C20.5386 17.5452 20.3206 17.2495 20.1224 16.94H23.161C23.3434 16.6563 23.508 16.3607 23.655 16.055H19.6286C19.4913 15.7687 19.3693 15.4734 19.2655 15.1703H24.0174C24.3036 14.3369 24.4582 13.4455 24.4582 12.5181C24.4582 11.9109 24.3918 11.3187 24.2658 10.7484H19.0178C19.0842 10.4469 19.168 10.1519 19.2666 9.86347H24.0168C23.9126 9.56038 23.7914 9.26521 23.6542 8.9789H19.6294C19.7764 8.67316 19.9415 8.37813 20.1233 8.09379H23.16C22.9619 7.78502 22.7433 7.48985 22.507 7.20961H20.7764C21.0427 6.89463 21.332 6.59894 21.6418 6.32516C20.1201 4.98034 18.1003 4.16113 15.8849 4.16113C11.1494 4.16113 7.31079 7.90243 7.31079 12.5181C7.31079 17.1337 11.1494 20.8749 15.8849 20.8749C18.1004 20.8749 20.1203 20.0557 21.6418 18.7114C21.952 18.4371 22.2417 18.1407 22.508 17.8251H20.7754Z" fill="#0066CC"/>
<path fill-rule="evenodd" clip-rule="evenodd" d="M21.5196 14.7764C21.1532 14.8709 20.7988 14.9172 20.4243 14.9164C19.2293 14.9153 18.6069 14.3848 18.6069 13.3703C18.6069 12.185 19.3992 11.3132 20.4747 11.3132C21.3544 11.3132 21.916 11.802 21.916 12.5679C21.916 12.8219 21.878 13.0696 21.7849 13.4195H19.6598C19.5841 13.9151 19.9553 14.1326 20.5872 14.1326C20.9656 14.1326 21.3078 14.0663 21.6869 13.9177L21.5196 14.7764ZM20.9482 12.7205C20.9482 12.6458 21.0663 12.1138 20.4513 12.1023C20.1117 12.1023 19.8682 12.3223 19.7697 12.7205H20.9482Z" fill="#000066"/>
<path fill-rule="evenodd" clip-rule="evenodd" d="M22.2396 12.4881C22.2396 12.9259 22.4924 13.2284 23.0674 13.4536C23.5068 13.629 23.5759 13.6798 23.5759 13.8366C23.5759 14.0539 23.3819 14.1534 22.9507 14.1508C22.627 14.1485 22.3314 14.1101 21.9828 14.0159L21.8284 14.8146C22.1385 14.8847 22.573 14.9077 22.9583 14.9164C24.1059 14.9164 24.6357 14.5502 24.6357 13.7585C24.6357 13.2826 24.4147 13.0027 23.8697 12.7941C23.4141 12.6166 23.3607 12.5784 23.3607 12.4177C23.3607 12.2291 23.5412 12.1337 23.8931 12.1337C24.1066 12.1337 24.3986 12.1527 24.6758 12.1855L24.8312 11.3825C24.5488 11.3444 24.1205 11.3137 23.8724 11.3137C22.6566 11.3137 22.2359 11.8471 22.2396 12.4881Z" fill="#000066"/>
<path fill-rule="evenodd" clip-rule="evenodd" d="M18.0243 14.8592H17.1328L17.1541 14.4952C16.8823 14.7823 16.5201 14.9161 16.0287 14.9161C15.4471 14.9161 15.0487 14.5285 15.0487 13.971C15.0487 13.1237 15.7413 12.6349 16.9321 12.6349C17.0545 12.6349 17.2102 12.6439 17.3701 12.6615C17.4032 12.548 17.4121 12.4992 17.4121 12.4376C17.4121 12.2057 17.2247 12.1203 16.7236 12.1203C16.2295 12.1221 15.8962 12.1936 15.5868 12.2745L15.7391 11.4972C16.2741 11.3646 16.6243 11.3132 17.0206 11.3132C17.9428 11.3132 18.4298 11.6658 18.4298 12.328C18.4375 12.5049 18.3745 12.8596 18.3426 13.0149C18.3066 13.2406 18.051 14.5502 18.0243 14.8592ZM17.2418 13.3132C17.1289 13.3024 17.0797 13.2991 17.0023 13.2991C16.3943 13.2991 16.086 13.4755 16.086 13.8238C16.086 14.0425 16.2364 14.1792 16.471 14.1792C16.9079 14.1792 17.2233 13.823 17.2418 13.3132Z" fill="#000066"/>
<path fill-rule="evenodd" clip-rule="evenodd" d="M26.5142 14.8042C26.2217 14.8822 25.9937 14.9163 25.7472 14.9163C25.2011 14.9163 24.9028 14.6443 24.9028 14.1598C24.8856 14.0267 25.0191 13.4118 25.0495 13.2405C25.0795 13.0687 25.5526 10.564 25.5526 10.564H26.6136L26.4532 11.3928H26.9974L26.8495 12.2384H26.3029C26.3029 12.2384 26.003 13.7066 26.003 13.8189C26.003 13.9967 26.1136 14.0741 26.3677 14.0741C26.4891 14.0741 26.583 14.063 26.6555 14.0419L26.5142 14.8042Z" fill="#000066"/>
<path fill-rule="evenodd" clip-rule="evenodd" d="M31.2551 11.3133C30.4775 11.3133 29.8698 11.6256 29.5169 12.1465L29.8232 11.3737C29.2587 11.1717 28.8947 11.46 28.5659 11.8697C28.5659 11.8697 28.5107 11.9377 28.4557 11.9999V11.3926H27.4594C27.3245 12.4645 27.0858 13.5517 26.8993 14.6261L26.8541 14.8597H27.9259C28.0276 14.3145 28.1111 13.8721 28.1943 13.5192C28.4219 12.5512 28.8052 12.2553 29.3804 12.3864C29.2476 12.6643 29.1748 12.9866 29.1748 13.343C29.1748 14.2085 29.6567 14.9165 30.8539 14.9165C32.0618 14.9165 32.9365 14.2876 32.9365 12.8535C32.9365 11.9886 32.3536 11.3133 31.2551 11.3133ZM30.9432 14.0753C30.5647 14.081 30.3351 13.7714 30.3351 13.3081C30.3351 12.7593 30.67 12.1389 31.2081 12.1389C31.6423 12.1389 31.791 12.4745 31.791 12.832C31.791 13.6128 31.4626 14.0753 30.9432 14.0753Z" fill="#000066"/>
<path fill-rule="evenodd" clip-rule="evenodd" d="M14.5493 14.8598H13.482L14.1163 11.6025L12.6559 14.8598H11.683L11.5052 11.6216L10.8688 14.8598H9.90051L10.7252 10.6228H12.3932L12.5321 12.9848L13.5887 10.6228H15.3906L14.5493 14.8598Z" fill="#000066"/>
<path fill-rule="evenodd" clip-rule="evenodd" d="M21.7873 14.5153C21.4212 14.61 21.0667 14.6562 20.6923 14.6554C19.4973 14.6544 18.8749 14.1237 18.8749 13.1093C18.8749 11.924 19.6671 11.0522 20.7424 11.0522C21.6223 11.0522 22.184 11.541 22.184 12.3067C22.184 12.5608 22.1459 12.8079 22.0529 13.1586H19.9279C19.8522 13.6536 20.223 13.8715 20.8549 13.8715C21.2334 13.8715 21.5758 13.8052 21.9548 13.6563L21.7873 14.5153ZM21.2159 12.4595C21.2159 12.3847 21.3341 11.8528 20.7193 11.8412C20.3797 11.8412 20.1362 12.0612 20.0374 12.4595H21.2159Z" fill="white"/>
<path fill-rule="evenodd" clip-rule="evenodd" d="M22.5076 12.2269C22.5076 12.6649 22.7603 12.9672 23.3351 13.1926C23.7749 13.3681 23.8438 13.4188 23.8438 13.5752C23.8438 13.7928 23.6497 13.8924 23.2189 13.8899C22.8947 13.8875 22.5992 13.8491 22.2508 13.7549L22.0962 14.5533C22.4064 14.6237 22.8412 14.6466 23.2261 14.6555C24.3737 14.6555 24.9038 14.2891 24.9038 13.4973C24.9038 13.0216 24.6826 12.7415 24.1376 12.5331C23.682 12.3557 23.6285 12.317 23.6285 12.1568C23.6285 11.9682 23.8093 11.8725 24.1611 11.8725C24.3745 11.8725 24.6664 11.8919 24.9438 11.9246L25.0992 11.1217C24.8168 11.083 24.3884 11.0527 24.1406 11.0527C22.9246 11.0527 22.5038 11.5859 22.5076 12.2269Z" fill="white"/>
<path fill-rule="evenodd" clip-rule="evenodd" d="M18.2924 14.5981H17.4006L17.4221 14.2341C17.1502 14.521 16.7882 14.6546 16.2967 14.6546C15.7153 14.6546 15.3165 14.2671 15.3165 13.7097C15.3165 12.8626 16.0092 12.3738 17.2 12.3738C17.3224 12.3738 17.478 12.3829 17.6381 12.3998C17.6712 12.2867 17.68 12.2382 17.68 12.1765C17.68 11.9441 17.4927 11.859 16.9918 11.859C16.4976 11.861 16.1642 11.9325 15.855 12.0136L16.0069 11.2361C16.542 11.1035 16.892 11.0522 17.2887 11.0522C18.2108 11.0522 18.6977 11.4045 18.6977 12.0669C18.7057 12.2439 18.6423 12.5979 18.6108 12.7538C18.5744 12.9795 18.3189 14.289 18.2924 14.5981ZM17.5096 13.0523C17.3969 13.0409 17.3476 13.038 17.2701 13.038C16.6623 13.038 16.3539 13.2142 16.3539 13.5622C16.3539 13.7813 16.5046 13.9182 16.7387 13.9182C17.1759 13.9182 17.4913 13.5616 17.5096 13.0523Z" fill="white"/>
<path fill-rule="evenodd" clip-rule="evenodd" d="M26.782 14.5432C26.4895 14.6214 26.2616 14.6555 26.0149 14.6555C25.4688 14.6555 25.1709 14.3833 25.1709 13.8989C25.1535 13.7657 25.287 13.1508 25.3172 12.9795C25.3476 12.8077 25.8206 10.303 25.8206 10.303H26.8815L26.7212 11.1316H27.2654L27.1174 11.9774H26.5709C26.5709 11.9774 26.2708 13.4456 26.2708 13.5573C26.2708 13.7359 26.3815 13.8127 26.6355 13.8127C26.757 13.8127 26.8507 13.8022 26.9236 13.7808L26.782 14.5432Z" fill="white"/>
<path fill-rule="evenodd" clip-rule="evenodd" d="M32.0591 12.5703C32.0591 13.3518 31.7303 13.8143 31.211 13.8143C30.8325 13.8195 30.6031 13.5104 30.6031 13.0471C30.6031 12.4982 30.9379 11.8778 31.4759 11.8778C31.9102 11.8778 32.0591 12.2134 32.0591 12.5703ZM33.2044 12.5923C33.2044 11.7275 32.6213 11.0522 31.5232 11.0522C30.2599 11.0522 29.4427 11.8729 29.4427 13.0819C29.4427 13.9472 29.9246 14.6554 31.1219 14.6554C32.3298 14.6554 33.2044 14.0265 33.2044 12.5923Z" fill="white"/>
<path fill-rule="evenodd" clip-rule="evenodd" d="M27.7272 11.1313C27.5923 12.2035 27.3536 13.2906 27.1671 14.3648L27.1221 14.5988H28.1937C28.5799 12.5239 28.7096 11.9329 29.519 12.1409L29.9083 11.1593C29.3437 10.9574 28.9804 11.2458 28.6515 11.6557C28.6812 11.4712 28.737 11.2931 28.7236 11.1313H27.7272Z" fill="white"/>
<path fill-rule="evenodd" clip-rule="evenodd" d="M14.8173 14.5987H13.7501L14.3843 11.3414L12.9238 14.5987H11.9509L11.7729 11.3604L11.1366 14.5987H10.1684L10.993 10.3616H12.6611L12.7491 12.9847L13.9233 10.3616H15.6585L14.8173 14.5987Z" fill="white"/>
</svg>
