<svg width="43" height="26" viewBox="0 0 43 26" fill="none" xmlns="http://www.w3.org/2000/svg">
<rect width="43" height="25.0498" rx="4" fill="white"/>
<path fill-rule="evenodd" clip-rule="evenodd" d="M24.1353 12.7276C24.1353 17.2275 20.3786 20.8749 15.744 20.8749C11.1094 20.8749 7.35236 17.2275 7.35236 12.7276C7.35236 8.22786 11.1094 4.58008 15.744 4.58008C20.3786 4.58008 24.1353 8.22786 24.1353 12.7276Z" fill="#CC0000"/>
<path fill-rule="evenodd" clip-rule="evenodd" d="M27.0101 4.58008C24.8413 4.58008 22.8659 5.37875 21.3764 6.68897C21.0734 6.95601 20.7906 7.24442 20.5294 7.5515H22.2249C22.4564 7.82524 22.6698 8.11301 22.8646 8.41442H19.8896C19.7116 8.69138 19.5498 8.97915 19.4061 9.27735H23.3479C23.4826 9.55662 23.6011 9.84426 23.7033 10.1399H19.0507C18.9539 10.4208 18.8722 10.7087 18.8069 11.0023H23.9467C24.0698 11.5585 24.1353 12.1356 24.1353 12.7276C24.1353 13.6321 23.9835 14.5028 23.7033 15.3159H19.0507C19.1528 15.6112 19.2714 15.8993 19.4058 16.1789H23.3479C23.2038 16.4763 23.0428 16.7644 22.8638 17.0417H19.8896C20.0836 17.3422 20.2974 17.6304 20.5294 17.9037H22.2244C21.9638 18.2111 21.6807 18.4995 21.3767 18.7665C22.8661 20.0767 24.8413 20.8749 27.0101 20.8749C31.6445 20.8749 35.4014 17.2275 35.4014 12.7276C35.4014 8.22824 31.6445 4.58008 27.0101 4.58008Z" fill="#FF9900"/>
<path fill-rule="evenodd" clip-rule="evenodd" d="M13.7844 13.6196C13.6888 13.609 13.6466 13.6057 13.581 13.6057C13.0646 13.6057 12.8035 13.7777 12.8035 14.1175C12.8035 14.3267 12.9309 14.4597 13.1298 14.4597C13.501 14.4597 13.7685 14.1167 13.7844 13.6196ZM14.4471 15.1171C14.3256 15.1171 13.692 15.1171 13.692 15.1171L13.7094 14.7688C13.4791 15.0439 13.1719 15.1752 12.7546 15.1752C12.261 15.1752 11.9224 14.801 11.9224 14.2573C11.9224 13.4388 12.5111 12.9615 13.5217 12.9615C13.6253 12.9615 13.7576 12.9708 13.8932 12.9874C13.9213 12.8764 13.9287 12.8293 13.9287 12.7694C13.9287 12.5469 13.7701 12.4635 13.3445 12.4635C12.8988 12.4591 12.5312 12.5669 12.3802 12.615C12.3897 12.5591 12.5066 11.8591 12.5066 11.8591C12.9604 11.7296 13.2598 11.6812 13.5968 11.6812C14.3792 11.6812 14.7936 12.0221 14.7927 12.6666C14.7943 12.8396 14.7647 13.0521 14.7189 13.3326C14.6399 13.8193 14.4702 14.8631 14.4471 15.1171Z" fill="#000066"/>
<path fill-rule="evenodd" clip-rule="evenodd" d="M11.5412 15.1171H10.63L11.1522 11.9404L9.9867 15.1171H9.36595L9.28917 11.9582L8.74069 15.1171H7.888L8.60025 10.9844H9.91032L9.98949 13.2976L10.7887 10.9844H12.2457L11.5412 15.1171Z" fill="#000066"/>
<path fill-rule="evenodd" clip-rule="evenodd" d="M28.1357 13.6196C28.0401 13.609 27.9984 13.6057 27.9329 13.6057C27.4161 13.6057 27.1553 13.7777 27.1553 14.1175C27.1553 14.3267 27.2822 14.4597 27.4816 14.4597C27.8526 14.4597 28.1202 14.1167 28.1357 13.6196ZM28.7987 15.1171C28.677 15.1171 28.0439 15.1171 28.0439 15.1171L28.061 14.7688C27.8308 15.0439 27.5237 15.1752 27.1066 15.1752C26.6124 15.1752 26.2742 14.801 26.2742 14.2573C26.2742 13.4388 26.8631 12.9615 27.8735 12.9615C27.9769 12.9615 28.109 12.9708 28.2447 12.9874C28.2729 12.8764 28.2802 12.8293 28.2802 12.7694C28.2802 12.5469 28.1216 12.4635 27.6961 12.4635C27.2504 12.4591 26.8829 12.5669 26.7313 12.615C26.7414 12.5591 26.8585 11.8591 26.8585 11.8591C27.312 11.7296 27.6117 11.6812 27.9482 11.6812C28.7311 11.6812 29.145 12.0221 29.1442 12.6666C29.1458 12.8396 29.1164 13.0521 29.0704 13.3326C28.9917 13.8193 28.8215 14.8631 28.7987 15.1171Z" fill="#000066"/>
<path fill-rule="evenodd" clip-rule="evenodd" d="M18.4957 15.066C18.2463 15.1423 18.052 15.1752 17.8411 15.1752C17.3755 15.1752 17.1213 14.9154 17.1213 14.4368C17.1148 14.2882 17.1883 13.8975 17.2461 13.5411C17.2989 13.227 17.6413 11.2476 17.6413 11.2476H18.5466L18.4409 11.7563H18.988L18.8645 12.5641H18.3156C18.2105 13.2031 18.0605 13.9993 18.0588 14.1049C18.0588 14.2782 18.154 14.3539 18.3708 14.3539C18.4746 14.3539 18.555 14.3436 18.6164 14.3222L18.4957 15.066Z" fill="#000066"/>
<path fill-rule="evenodd" clip-rule="evenodd" d="M21.2721 15.0389C20.961 15.1312 20.6611 15.1763 20.343 15.1752C19.3292 15.174 18.8007 14.6602 18.8007 13.6759C18.8007 12.5271 19.4729 11.6812 20.3857 11.6812C21.1322 11.6812 21.6092 12.1547 21.6092 12.8971C21.6092 13.144 21.5766 13.3845 21.4974 13.7239H19.6941C19.6333 14.2115 19.9545 14.4145 20.4816 14.4145C20.8053 14.4145 21.0978 14.3497 21.4229 14.2033L21.2721 15.0389ZM20.7631 13.0465C20.7683 12.9764 20.859 12.4465 20.3414 12.4465C20.0534 12.4465 19.8469 12.66 19.7632 13.0465H20.7631Z" fill="#000066"/>
<path fill-rule="evenodd" clip-rule="evenodd" d="M14.9934 12.8188C14.9934 13.2436 15.2056 13.5368 15.687 13.7571C16.0558 13.9256 16.1132 13.9755 16.1132 14.128C16.1132 14.3373 15.9504 14.4323 15.59 14.4323C15.3181 14.4323 15.0653 14.3908 14.7737 14.2993C14.7737 14.2993 14.6542 15.0404 14.6485 15.0758C14.8555 15.1193 15.0401 15.1599 15.5965 15.1752C16.5577 15.1752 17.0017 14.8198 17.0017 14.0518C17.0017 13.5901 16.816 13.3191 16.3596 13.1151C15.9778 12.945 15.9336 12.9069 15.9336 12.7501C15.9336 12.5684 16.0852 12.4756 16.3795 12.4756C16.5584 12.4756 16.8025 12.4941 17.0342 12.5259L17.1638 11.7464C16.928 11.71 16.5702 11.6812 16.362 11.6812C15.343 11.6812 14.9901 12.1978 14.9934 12.8188Z" fill="#000066"/>
<path fill-rule="evenodd" clip-rule="evenodd" d="M25.7028 11.7699C25.9558 11.7699 26.1921 11.8338 26.5169 11.9931L26.6661 11.0962C26.5321 11.0452 26.0626 10.7463 25.6647 10.7463C25.0552 10.7463 24.5394 11.0404 24.1772 11.5247C23.6484 11.3547 23.4307 11.6982 23.1645 12.0407L22.9277 12.0943C22.9456 11.9816 22.962 11.8697 22.9568 11.7563H22.1197C22.0057 12.7968 21.8032 13.8502 21.6447 14.8911L21.6032 15.1172H22.5147C22.6668 14.1575 22.7499 13.5432 22.8006 13.127L23.1438 12.9424C23.1954 12.7569 23.3554 12.6945 23.6774 12.7021C23.6354 12.9213 23.6125 13.1521 23.6125 13.391C23.6125 14.4907 24.2244 15.1753 25.2047 15.1753C25.4573 15.1753 25.6743 15.1431 26.0102 15.0542L26.1698 14.1125C25.8678 14.2566 25.6204 14.3244 25.3962 14.3244C24.8665 14.3244 24.546 13.9447 24.546 13.3176C24.546 12.4074 25.0223 11.7699 25.7028 11.7699Z" fill="#000066"/>
<path fill-rule="evenodd" clip-rule="evenodd" d="M33.4158 10.9844L33.2133 12.1783C32.9646 11.8602 32.697 11.6297 32.3437 11.6297C31.8841 11.6297 31.4657 11.9681 31.1917 12.4664C30.8102 12.3895 30.4159 12.2588 30.4159 12.2588L30.4157 12.262C30.446 11.9835 30.4589 11.8141 30.4559 11.7561H29.6189C29.5053 12.7966 29.3025 13.8501 29.1442 14.891L29.1023 15.1171H30.014C30.1371 14.3414 30.2311 13.6966 30.3004 13.186C30.6121 12.9125 30.768 12.6747 31.0822 12.6901C30.9428 13.0174 30.8615 13.3942 30.8615 13.7807C30.8615 14.6206 31.2989 15.1751 31.9614 15.1751C32.2953 15.1751 32.5515 15.0633 32.8014 14.8042L32.7584 15.1168H33.6204L34.3143 10.9844H33.4158ZM32.2765 14.3406C31.9665 14.3406 31.8094 14.1174 31.8094 13.6781C31.8094 13.0174 32.1029 12.5491 32.516 12.5491C32.8291 12.5491 32.9988 12.7804 32.9988 13.2073C32.9988 13.8736 32.7005 14.3406 32.2765 14.3406Z" fill="#000066"/>
<path fill-rule="evenodd" clip-rule="evenodd" d="M11.8032 14.8718H10.8923L11.4144 11.6951L10.2491 14.8718H9.62812L9.55147 11.7135L9.00285 14.8718H8.15015L8.86241 10.7395H10.1725L10.2091 13.2976L11.0931 10.7395H12.5079L11.8032 14.8718Z" fill="white"/>
<path fill-rule="evenodd" clip-rule="evenodd" d="M14.0466 13.3747C13.9511 13.3639 13.9089 13.361 13.8433 13.361C13.3269 13.361 13.0657 13.5327 13.0657 13.8722C13.0657 14.0812 13.1932 14.215 13.3923 14.215C13.7633 14.215 14.0308 13.872 14.0466 13.3747ZM14.7092 14.8718C14.5878 14.8718 13.9545 14.8718 13.9545 14.8718L13.9717 14.5238C13.7415 14.7987 13.4342 14.9301 13.0169 14.9301C12.5232 14.9301 12.1848 14.5554 12.1848 14.0118C12.1848 13.1932 12.7735 12.7165 13.7842 12.7165C13.8875 12.7165 14.0198 12.7257 14.1555 12.7427C14.1836 12.6314 14.191 12.5842 14.191 12.524C14.191 12.3017 14.0324 12.2189 13.6069 12.2189C13.161 12.2137 12.7936 12.3215 12.6424 12.3695C12.6521 12.3139 12.7688 11.6139 12.7688 11.6139C13.2227 11.4846 13.5221 11.4358 13.8591 11.4358C14.6414 11.4358 15.0557 11.7771 15.055 12.4214C15.0565 12.5941 15.0272 12.8077 14.9813 13.0874C14.9021 13.5737 14.7324 14.6181 14.7092 14.8718Z" fill="white"/>
<path fill-rule="evenodd" clip-rule="evenodd" d="M26.9281 10.8509L26.7789 11.7477C26.4536 11.5889 26.218 11.5246 25.9652 11.5246C25.2851 11.5246 24.8079 12.1629 24.8079 13.0732C24.8079 13.7004 25.1286 14.0793 25.6582 14.0793C25.8826 14.0793 26.1304 14.012 26.4319 13.8674L26.2718 14.8091C25.9364 14.8978 25.7194 14.9302 25.4669 14.9302C24.4859 14.9302 23.875 14.2455 23.875 13.1461C23.875 11.6687 24.7196 10.6362 25.9269 10.6362C26.3247 10.6362 26.7946 10.7999 26.9281 10.8509Z" fill="white"/>
<path fill-rule="evenodd" clip-rule="evenodd" d="M28.3977 13.3747C28.3028 13.3639 28.2604 13.361 28.1949 13.361C27.6788 13.361 27.4174 13.5327 27.4174 13.8722C27.4174 14.0812 27.5449 14.215 27.7438 14.215C28.1147 14.215 28.3825 13.872 28.3977 13.3747ZM29.0608 14.8718C28.9396 14.8718 28.3061 14.8718 28.3061 14.8718L28.3232 14.5238C28.093 14.7987 27.7857 14.9301 27.3688 14.9301C26.8745 14.9301 26.5365 14.5554 26.5365 14.0118C26.5365 13.1932 27.1248 12.7165 28.1357 12.7165C28.239 12.7165 28.3711 12.7257 28.5066 12.7427C28.5348 12.6314 28.5423 12.5842 28.5423 12.524C28.5423 12.3017 28.384 12.2189 27.9582 12.2189C27.5128 12.2137 27.1455 12.3215 26.994 12.3695C27.0036 12.3139 27.1204 11.6139 27.1204 11.6139C27.5743 11.4846 27.8735 11.4358 28.2105 11.4358C28.9927 11.4358 29.4074 11.7771 29.4064 12.4214C29.4082 12.5941 29.3786 12.8077 29.3328 13.0874C29.2538 13.5737 29.0841 14.6181 29.0608 14.8718Z" fill="white"/>
<path fill-rule="evenodd" clip-rule="evenodd" d="M18.7578 14.8209C18.5086 14.8971 18.3141 14.9302 18.1035 14.9302C17.6377 14.9302 17.3834 14.6703 17.3834 14.1922C17.377 14.0431 17.4506 13.653 17.5086 13.2962C17.561 12.9819 17.9035 11.0027 17.9035 11.0027H18.8091L18.7031 11.5113H19.1681L19.0442 12.3188H18.5778C18.4727 12.9585 18.3227 13.7542 18.3208 13.8598C18.3208 14.0336 18.4164 14.1088 18.633 14.1088C18.7368 14.1088 18.8171 14.0989 18.8787 14.077L18.7578 14.8209Z" fill="white"/>
<path fill-rule="evenodd" clip-rule="evenodd" d="M21.5346 14.7941C21.2234 14.8867 20.9229 14.9304 20.6052 14.9301C19.5912 14.9295 19.0632 14.4151 19.0632 13.4309C19.0632 12.2817 19.7352 11.4358 20.6473 11.4358C21.3946 11.4358 21.8713 11.9094 21.8713 12.6527C21.8713 12.899 21.8382 13.1394 21.7599 13.4789H19.9564C19.8953 13.9665 20.2169 14.1699 20.7435 14.1699C21.0675 14.1699 21.3599 14.1048 21.6853 13.958L21.5346 14.7941ZM21.0256 12.8011C21.0305 12.7308 21.1216 12.2013 20.6041 12.2013C20.3158 12.2013 20.1093 12.4151 20.0254 12.8011H21.0256Z" fill="white"/>
<path fill-rule="evenodd" clip-rule="evenodd" d="M15.2555 12.5735C15.2555 12.999 15.4679 13.2916 15.9494 13.5121C16.3182 13.6805 16.3754 13.7304 16.3754 13.8831C16.3754 14.0926 16.2127 14.1871 15.8521 14.1871C15.5804 14.1871 15.3275 14.1461 15.0357 14.0548C15.0357 14.0548 14.9164 14.7954 14.9108 14.8303C15.1177 14.8744 15.3024 14.9145 15.8586 14.9301C16.82 14.9301 17.264 14.5749 17.264 13.8068C17.264 13.3449 17.0781 13.074 16.6218 12.8705C16.2399 12.6999 16.196 12.6622 16.196 12.5051C16.196 12.3234 16.3474 12.23 16.6419 12.23C16.8204 12.23 17.0649 12.2493 17.2964 12.2809L17.4261 11.5016C17.1902 11.4654 16.8326 11.4358 16.6243 11.4358C15.6051 11.4358 15.2524 11.9526 15.2555 12.5735Z" fill="white"/>
<path fill-rule="evenodd" clip-rule="evenodd" d="M33.8825 14.8718H33.0208L33.0635 14.559C32.8135 14.8182 32.5575 14.9301 32.2236 14.9301C31.5616 14.9301 31.1235 14.3762 31.1235 13.5354C31.1235 12.4176 31.8026 11.4753 32.6059 11.4753C32.9592 11.4753 33.2266 11.6154 33.4758 11.9337L33.6779 10.7395H34.5764L33.8825 14.8718ZM32.5385 14.0953C32.963 14.0953 33.2609 13.6285 33.2609 12.9629C33.2609 12.5358 33.0913 12.3037 32.7782 12.3037C32.3649 12.3037 32.0716 12.7722 32.0716 13.4331C32.0716 13.8729 32.2287 14.0953 32.5385 14.0953Z" fill="white"/>
<path fill-rule="evenodd" clip-rule="evenodd" d="M29.8814 11.5112C29.7675 12.5514 29.5648 13.6049 29.4064 14.6459L29.3649 14.8719H30.276C30.602 12.8166 30.6804 12.4156 31.1917 12.4657C31.273 12.045 31.4246 11.6766 31.5374 11.491C31.1559 11.4137 30.9428 11.6231 30.6635 12.0209C30.6858 11.8488 30.726 11.6818 30.7184 11.5112H29.8814Z" fill="white"/>
<path fill-rule="evenodd" clip-rule="evenodd" d="M22.3823 11.5112C22.2679 12.5514 22.065 13.6049 21.9068 14.6459L21.8654 14.8719H22.7768C23.1029 12.8166 23.181 12.4156 23.6916 12.4657C23.7734 12.045 23.9253 11.6766 24.0378 11.491C23.6567 11.4137 23.4432 11.6231 23.1645 12.0209C23.1865 11.8488 23.2269 11.6818 23.219 11.5112H22.3823Z" fill="white"/>
</svg>
