<svg width="43" height="26" viewBox="0 0 43 26" fill="none" xmlns="http://www.w3.org/2000/svg">
<rect width="43" height="25.0498" rx="4" fill="white"/>
<path fill-rule="evenodd" clip-rule="evenodd" d="M17.8407 16.5107L19.1628 8.54736H21.2762L19.9542 16.5107H17.8407Z" fill="#26337A"/>
<path fill-rule="evenodd" clip-rule="evenodd" d="M27.6201 8.74281C27.2023 8.58298 26.5451 8.40869 25.7264 8.40869C23.6369 8.40869 22.1661 9.48936 22.1539 11.0368C22.1406 12.1814 23.2034 12.8198 24.0047 13.2003C24.8283 13.5902 25.1049 13.8398 25.1017 14.1885C25.096 14.7218 24.4444 14.9662 23.8367 14.9662C22.9906 14.9662 22.541 14.8459 21.846 14.5486L21.5742 14.4218L21.2786 16.2043C21.7714 16.4262 22.685 16.6187 23.6332 16.6288C25.8538 16.6288 27.2967 15.5612 27.3136 13.9087C27.3212 13.001 26.758 12.313 25.5384 11.745C24.7998 11.3757 24.3466 11.1311 24.3518 10.7574C24.3522 10.4264 24.7347 10.0721 25.5625 10.0721C26.2537 10.0613 26.7542 10.2163 27.1441 10.3781L27.3339 10.4691L27.6201 8.74281Z" fill="#26337A"/>
<path fill-rule="evenodd" clip-rule="evenodd" d="M30.4343 13.6874C30.6094 13.2297 31.2761 11.4615 31.2761 11.4615C31.2638 11.4825 31.4503 11.0002 31.557 10.7017L31.6997 11.3885C31.6997 11.3885 32.1052 13.2893 32.1887 13.6874C31.8597 13.6874 30.8469 13.6874 30.4343 13.6874ZM33.0415 8.55542H31.4082C30.9016 8.55542 30.5225 8.69631 30.3005 9.21554L27.162 16.5135H29.3817C29.3817 16.5135 29.7439 15.5318 29.8261 15.3163C30.0682 15.3163 32.2251 15.3204 32.533 15.3204C32.5963 15.5983 32.7903 16.5135 32.7903 16.5135H34.7519L33.0415 8.55542Z" fill="#26337A"/>
<path fill-rule="evenodd" clip-rule="evenodd" d="M16.0677 8.55396L13.9991 13.9831L13.7776 12.8795C13.3921 11.6079 12.1922 10.2297 10.85 9.53913L12.7424 16.5037L14.9791 16.5024L18.3073 8.55396H16.0677Z" fill="#26337A"/>
<path fill-rule="evenodd" clip-rule="evenodd" d="M12.0789 8.54858H8.6708L8.64276 8.71358C11.2947 9.37323 13.0493 10.9655 13.7776 12.8795L13.037 9.22046C12.9092 8.71582 12.5379 8.56622 12.0789 8.54858Z" fill="#EC982D"/>
</svg>
